<svg xmlns="http://www.w3.org/2000/svg" viewBox="0 0 182 32">
  <symbol id="logo">
    <path d="m7.476.88 6.426 13.188L20.412.88h7.518L17.304 20.536V30.7h-6.846V20.452L0 .88h7.476ZM36.804 31.12c-2.52 0-4.662-.532-6.426-1.596-1.736-1.064-3.066-2.464-3.99-4.2-.924-1.736-1.386-3.612-1.386-5.628 0-2.044.462-3.934 1.386-5.67.924-1.736 2.268-3.136 4.032-4.2 1.764-1.064 3.892-1.596 6.384-1.596 2.492 0 4.62.532 6.384 1.596 1.764 1.064 3.108 2.464 4.032 4.2.924 1.736 1.386 3.626 1.386 5.67 0 2.016-.462 3.892-1.386 5.628-.924 1.736-2.268 3.136-4.032 4.2-1.764 1.064-3.892 1.596-6.384 1.596ZM31.89 19.696c0 1.708.462 3.094 1.386 4.158.952 1.064 2.128 1.596 3.528 1.596 1.372 0 2.52-.532 3.444-1.596.952-1.064 1.428-2.45 1.428-4.158 0-1.708-.476-3.094-1.428-4.158-.924-1.064-2.072-1.596-3.444-1.596-1.4 0-2.576.532-3.528 1.596-.924 1.064-1.386 2.45-1.386 4.158ZM51.729 22.762V8.65h6.72v12.642c0 2.772 1.022 4.158 3.066 4.158.896 0 1.764-.238 2.604-.714.84-.504 1.582-1.33 2.226-2.478V8.65h6.72v14.574c0 .672.098 1.148.294 1.428.224.28.602.434 1.134.462V30.7c-.644.112-1.19.196-1.638.252a9.9 9.9 0 0 1-1.218.084c-2.408 0-3.78-.938-4.116-2.814l-.126-1.344c-1.008 1.456-2.268 2.534-3.78 3.234-1.484.672-3.15 1.008-4.998 1.008-2.24 0-3.948-.714-5.124-2.142-1.176-1.428-1.764-3.5-1.764-6.216ZM92.257 14.404c-1.624.028-3.094.294-4.41.798-1.316.504-2.268 1.26-2.856 2.268V30.7h-6.72V8.65h6.174v4.452c.756-1.484 1.736-2.646 2.94-3.486 1.204-.84 2.464-1.274 3.78-1.302.56 0 .924.014 1.092.042v6.048ZM116.92 6.928h-9.072V30.7h-6.888V6.928h-9.114V.88h25.074v6.048ZM126.382 31.12c-2.52 0-4.662-.532-6.426-1.596-1.736-1.064-3.066-2.464-3.99-4.2-.924-1.736-1.386-3.612-1.386-5.628 0-2.044.462-3.934 1.386-5.67.924-1.736 2.268-3.136 4.032-4.2 1.764-1.064 3.892-1.596 6.384-1.596 2.492 0 4.62.532 6.384 1.596 1.764 1.064 3.108 2.464 4.032 4.2.924 1.736 1.386 3.626 1.386 5.67 0 2.016-.462 3.892-1.386 5.628-.924 1.736-2.268 3.136-4.032 4.2-1.764 1.064-3.892 1.596-6.384 1.596Zm-4.914-11.424c0 1.708.462 3.094 1.386 4.158.952 1.064 2.128 1.596 3.528 1.596 1.372 0 2.52-.532 3.444-1.596.952-1.064 1.428-2.45 1.428-4.158 0-1.708-.476-3.094-1.428-4.158-.924-1.064-2.072-1.596-3.444-1.596-1.4 0-2.576.532-3.528 1.596-.924 1.064-1.386 2.45-1.386 4.158ZM141.307 22.762V8.65h6.72v12.642c0 2.772 1.022 4.158 3.066 4.158.896 0 1.764-.238 2.604-.714.84-.504 1.582-1.33 2.226-2.478V8.65h6.72v14.574c0 .672.098 1.148.294 1.428.224.28.602.434 1.134.462V30.7c-.644.112-1.19.196-1.638.252a9.9 9.9 0 0 1-1.218.084c-2.408 0-3.78-.938-4.116-2.814l-.126-1.344c-1.008 1.456-2.268 2.534-3.78 3.234-1.484.672-3.15 1.008-4.998 1.008-2.24 0-3.948-.714-5.124-2.142-1.176-1.428-1.764-3.5-1.764-6.216ZM181.835 14.404c-1.624.028-3.094.294-4.41.798-1.316.504-2.268 1.26-2.856 2.268V30.7h-6.72V8.65h6.174v4.452c.756-1.484 1.736-2.646 2.94-3.486 1.204-.84 2.464-1.274 3.78-1.302.56 0 .924.014 1.092.042v6.048Z"/>
  </symbol>
</svg>